<svg display="none" xmlns="http://www.w3.org/2000/svg">
    <symbol id="android" viewBox="0 0 576 512">
        <g>
            <path d="M420.55,301.93a24,24,0,1,1,24-24,24,24,0,0,1-24,24m-265.1,0a24,24,0,1,1,24-24,24,24,0,0,1-24,24m273.7-144.48,47.94-83a10,10,0,1,0-17.27-10h0l-48.54,84.07a301.25,301.25,0,0,0-246.56,0L116.18,64.45a10,10,0,1,0-17.27,10h0l47.94,83C64.53,202.22,8.24,285.55,0,384H576c-8.24-98.45-64.54-181.78-146.85-226.55"/>
        </g>
    </symbol>
    <symbol id="vk" viewBox="0 0 576 512">
        <g>
            <path
                    d="M545 117.7c3.7-12.5 0-21.7-17.8-21.7h-58.9c-15 0-21.9 7.9-25.6 16.7 0 0-30 73.1-72.4 120.5-13.7 13.7-20 18.1-27.5 18.1-3.7 0-9.4-4.4-9.4-16.9V117.7c0-15-4.2-21.7-16.6-21.7h-92.6c-9.4 0-15 7-15 13.5 0 14.2 21.2 17.5 23.4 57.5v86.8c0 19-3.4 22.5-10.9 22.5-20 0-68.6-73.4-97.4-157.4-5.8-16.3-11.5-22.9-26.6-22.9H38.8c-16.8 0-20.2 7.9-20.2 16.7 0 15.6 20 93.1 93.1 195.5C160.4 378.1 229 416 291.4 416c37.5 0 42.1-8.4 42.1-22.9 0-66.8-3.4-73.1 15.4-73.1 8.7 0 23.7 4.4 58.7 38.1 40 40 46.6 57.9 69 57.9h58.9c16.8 0 25.3-8.4 20.4-25-11.2-34.9-86.9-106.7-90.3-111.5-8.7-11.2-6.2-16.2 0-26.2.1-.1 72-101.3 79.4-135.6z">
            </path>
        </g>
    </symbol>
    <symbol id="github" viewBox="0 0 496 512">
        <g>
            <svg xmlns="http://www.w3.org/2000/svg">
                <path d="M165.9 397.4c0 2-2.3 3.6-5.2 3.6-3.3.3-5.6-1.3-5.6-3.6 0-2 2.3-3.6 5.2-3.6 3-.3 5.6 1.3 5.6 3.6zm-31.1-4.5c-.7 2 1.3 4.3 4.3 4.9 2.6 1 5.6 0 6.2-2s-1.3-4.3-4.3-5.2c-2.6-.7-5.5.3-6.2 2.3zm44.2-1.7c-2.9.7-4.9 2.6-4.6 4.9.3 2 2.9 3.3 5.9 2.6 2.9-.7 4.9-2.6 4.6-4.6-.3-1.9-3-3.2-5.9-2.9zM244.8 8C106.1 8 0 113.3 0 252c0 110.9 69.8 205.8 169.5 239.2 12.8 2.3 17.3-5.6 17.3-12.1 0-6.2-.3-40.4-.3-61.4 0 0-70 15-84.7-29.8 0 0-11.4-29.1-27.8-36.6 0 0-22.9-15.7 1.6-15.4 0 0 24.9 2 38.6 25.8 21.9 38.6 58.6 27.5 72.9 20.9 2.3-16 8.8-27.1 16-33.7-55.9-6.2-112.3-14.3-112.3-110.5 0-27.5 7.6-41.3 23.6-58.9-2.6-6.5-11.1-33.3 2.6-67.9 20.9-6.5 69 27 69 27 20-5.6 41.5-8.5 62.8-8.5s42.8 2.9 62.8 8.5c0 0 48.1-33.6 69-27 13.7 34.7 5.2 61.4 2.6 67.9 16 17.7 25.8 31.5 25.8 58.9 0 96.5-58.9 104.2-114.8 110.5 9.2 7.9 17 22.9 17 46.4 0 33.7-.3 75.4-.3 83.6 0 6.5 4.6 14.4 17.3 12.1C428.2 457.8 496 362.9 496 252 496 113.3 383.5 8 244.8 8zM97.2 352.9c-1.3 1-1 3.3.7 5.2 1.6 1.6 3.9 2.3 5.2 1 1.3-1 1-3.3-.7-5.2-1.6-1.6-3.9-2.3-5.2-1zm-10.8-8.1c-.7 1.3.3 2.9 2.3 3.9 1.6 1 3.6.7 4.3-.7.7-1.3-.3-2.9-2.3-3.9-2-.6-3.6-.3-4.3.7zm32.4 35.6c-1.6 1.3-1 4.3 1.3 6.2 2.3 2.3 5.2 2.6 6.5 1 1.3-1.3.7-4.3-1.3-6.2-2.2-2.3-5.2-2.6-6.5-1zm-11.4-14.7c-1.6 1-1.6 3.6 0 5.9 1.6 2.3 4.3 3.3 5.6 2.3 1.6-1.3 1.6-3.9 0-6.2-1.4-2.3-4-3.3-5.6-2z"/>
            </svg>
        </g>
    </symbol>
    <symbol id="firstImgBgc" viewBox="0 0 496 512">
        <g>
            <svg xmlns="http://www.w3.org/2000/svg" width="1179.883" height="477.5" viewBox="0 0 1179.883 477.5">
                <defs>
                    <clipPath id="a">
                        <rect width="1179.883" height="477.5" fill="none"/>
                    </clipPath>
                </defs>
                <g clip-path="url(#a)">
                    <g transform="translate(714.913 47.977)" fill="none" stroke="#efefef" stroke-width="6">
                        <ellipse cx="21.776" cy="21.776" rx="21.776" ry="21.776" stroke="none"/>
                        <ellipse cx="21.776" cy="21.776" rx="18.776" ry="18.776" fill="none"/>
                    </g>
                    <g transform="translate(704.913 294.977)" fill="none" stroke="#efefef" stroke-width="6">
                        <ellipse cx="16.276" cy="16.276" rx="16.276" ry="16.276" stroke="none"/>
                        <ellipse cx="16.276" cy="16.276" rx="13.276" ry="13.276" fill="none"/>
                    </g>
                    <g transform="translate(1070.577)" fill="none" stroke="#efefef" stroke-width="6">
                        <ellipse cx="13.776" cy="13.776" rx="13.776" ry="13.776" stroke="none"/>
                        <ellipse cx="13.776" cy="13.776" rx="10.776" ry="10.776" fill="none"/>
                    </g>
                    <g transform="translate(1117.947 134.405)" fill="none" stroke="#efefef" stroke-width="6">
                        <ellipse cx="20.776" cy="20.776" rx="20.776" ry="20.776" stroke="none"/>
                        <ellipse cx="20.776" cy="20.776" rx="17.776" ry="17.776" fill="none"/>
                    </g>
                    <path d="M26.4,0,41.338,39.1,0,31.626Z" transform="matrix(0.669, -0.743, 0.743, 0.669, 1084.442, 236.725)" fill="#efefef"/>
                    <path d="M26.4,0,41.338,39.1,0,31.626Z" transform="translate(685.287 158.844) rotate(6)" fill="#efefef"/>
                    <path d="M21.141,0,33.108,31.314,0,25.33Z" transform="translate(798.113 94.199) rotate(-31)" fill="#efefef"/>
                    <path d="M21.141,0,33.108,31.314,0,25.33Z" transform="translate(1160.311 27.739) rotate(67)" fill="#efefef"/>
                    <path d="M20.742,61.074l3.753-10.9L13.8,46.277l2.1-5.769,1.768-5.135-10.7-3.893.05-.137L6.83,31.27l4.093-10.663L.139,16.681l.05-.137L0,16.472,6.322,0l5.846,2.244L8.075,12.907l10.785,3.926-.05.136.188.072L14.9,27.705l10.786,3.925-2.1,5.766-1.77,5.139,10.7,3.893-2.086,5.731L26.661,63.113Z"
                          transform="matrix(-0.07, 0.998, -0.998, -0.07, 834.924, 155.945)" fill="#efefef"/>
                    <path d="M20.742,61.074l3.753-10.9L13.8,46.277l2.1-5.769,1.768-5.135-10.7-3.893.05-.137L6.83,31.27l4.093-10.663L.139,16.681l.05-.137L0,16.472,6.322,0l5.846,2.244L8.075,12.907l10.785,3.926-.05.136.188.072L14.9,27.705l10.786,3.925-2.1,5.766-1.77,5.139,10.7,3.893-2.086,5.731L26.661,63.113Z"
                          transform="translate(1140.924 437.945) rotate(94)" fill="#efefef"/>
                    <path d="M19.5,57.4l3.528-10.248L12.969,43.5l1.973-5.423L16.6,33.247,6.549,29.588l.047-.129-.176-.068,3.847-10.022L.13,15.679l.047-.129L0,15.482,5.942,0l5.494,2.109L7.589,12.132l10.136,3.69-.047.128.177.068L14.008,26.04,24.145,29.73l-1.973,5.419-1.663,4.83,10.055,3.659L28.6,49.025,25.059,59.32Z"
                          transform="translate(1042.919 66.279) rotate(-38)" fill="#efefef"/>
                    <path d="M9.7,28.03v-9.7H0V9.7H9.7V0h8.625V9.7h9.7v8.624h-9.7v9.7Z" transform="translate(814.321 10.537)" fill="#efefef"/>
                    <path d="M9.7,28.03v-9.7H0V9.7H9.7V0h8.625V9.7h9.7v8.624h-9.7v9.7Z" transform="translate(742.213 235.938)" fill="#efefef"/>
                    <path d="M10.838,31.31V20.472H0V10.839H10.838V0h9.634V10.839H31.31v9.633H20.472V31.31Z" transform="matrix(0.839, -0.545, 0.545, 0.839, 1136.572, 293.35)"
                          fill="#efefef"/>
                    <path d="M7.334,21.189V13.854H0V7.335H7.334V0h6.52V7.335h7.334v6.519H13.854v7.334Z" transform="translate(699.01 444.013) rotate(-13)" fill="#efefef"/>
                    <path d="M12.932,37.358V24.426H0V12.933H12.932V0H24.426V12.933H37.357V24.426H24.426V37.358Z" transform="matrix(0.998, 0.07, -0.07, 0.998, 1043.882, 123.771)"
                          fill="#efefef"/>
                    <path d="M19.5,57.4l3.528-10.248L12.969,43.5l1.973-5.423L16.6,33.247,6.549,29.588l.047-.129-.176-.068,3.847-10.022L.13,15.679l.047-.129L0,15.482,5.942,0l5.494,2.109L7.589,12.132l10.136,3.69-.047.128.177.068L14.008,26.04,24.145,29.73l-1.973,5.419-1.663,4.83,10.055,3.659L28.6,49.025,25.059,59.32Z"
                          transform="translate(870.019 58.427) rotate(-42)" fill="#efefef"/>
                    <rect width="32" height="32" transform="translate(1127.53 350.21) rotate(16)" fill="#efefef"/>
                    <rect width="32" height="32" transform="matrix(0.819, -0.574, 0.574, 0.819, 670.217, 382.071)" fill="#efefef"/>
                    <line x2="1171" transform="translate(0 477.5)" fill="none" stroke="#6a696b" stroke-width="0.5" opacity="0.3"/>
                </g>
            </svg>
        </g>
    </symbol>
    <symbol id="star" viewBox="0 0 576 512">
        <g>
            <svg xmlns="http://www.w3.org/2000/svg">
                <path
                        d="M259.3 17.8L194 150.2 47.9 171.5c-26.2 3.8-36.7 36.1-17.7 54.6l105.7 103-25 145.5c-4.5 26.3 23.2 46 46.4 33.7L288 439.6l130.7 68.7c23.2 12.2 50.9-7.4 46.4-33.7l-25-145.5 105.7-103c19-18.5 8.5-50.8-17.7-54.6L382 150.2 316.7 17.8c-11.7-23.6-45.6-23.9-57.4 0z">

                </path>
            </svg>
        </g>
    </symbol>
    <symbol id="star-half" viewBox="0 0 576 512">
        <g>
            <svg xmlns="http://www.w3.org/2000/svg">
                <path
                        d="M288 0c-11.4 0-22.8 5.9-28.7 17.8L194 150.2 47.9 171.4c-26.2 3.8-36.7 36.1-17.7 54.6l105.7 103-25 145.5c-4.5 26.1 23 46 46.4 33.7L288 439.6V0z">
                </path>
            </svg>
        </g>
    </symbol>
    <symbol id="telegram" viewBox="0 0 576 512">
        <svg xmlns="http://www.w3.org/2000/svg" viewBox="0 0 496 512">
            <path d="M248 8C111 8 0 119 0 256s111 248 248 248 248-111 248-248S385 8 248 8zm121.8 169.9l-40.7 191.8c-3 13.6-11.1 16.9-22.4 10.5l-62-45.7-29.9 28.8c-3.3 3.3-6.1 6.1-12.5 6.1l4.4-63.1 114.9-103.8c5-4.4-1.1-6.9-7.7-2.5l-142 89.4-61.2-19.1c-13.3-4.2-13.6-13.3 2.8-19.7l239.1-92.2c11.1-4 20.8 2.7 17.2 19.5z"/>
        </svg>
    </symbol>
</svg>
