<svg xmlns="http://www.w3.org/2000/svg" xmlns:xlink="http://www.w3.org/1999/xlink" width="1179.883" height="477.5" viewBox="0 0 1179.883 477.5"><defs><clipPath id="a"><rect width="1179.883" height="477.5" fill="none"/></clipPath></defs><g clip-path="url(#a)"><g transform="translate(714.913 47.977)" fill="none" stroke="#efefef" stroke-width="6"><ellipse cx="21.776" cy="21.776" rx="21.776" ry="21.776" stroke="none"/><ellipse cx="21.776" cy="21.776" rx="18.776" ry="18.776" fill="none"/></g><g transform="translate(704.913 294.977)" fill="none" stroke="#efefef" stroke-width="6"><ellipse cx="16.276" cy="16.276" rx="16.276" ry="16.276" stroke="none"/><ellipse cx="16.276" cy="16.276" rx="13.276" ry="13.276" fill="none"/></g><g transform="translate(1070.577)" fill="none" stroke="#efefef" stroke-width="6"><ellipse cx="13.776" cy="13.776" rx="13.776" ry="13.776" stroke="none"/><ellipse cx="13.776" cy="13.776" rx="10.776" ry="10.776" fill="none"/></g><g transform="translate(1117.947 134.405)" fill="none" stroke="#efefef" stroke-width="6"><ellipse cx="20.776" cy="20.776" rx="20.776" ry="20.776" stroke="none"/><ellipse cx="20.776" cy="20.776" rx="17.776" ry="17.776" fill="none"/></g><path d="M26.4,0,41.338,39.1,0,31.626Z" transform="matrix(0.669, -0.743, 0.743, 0.669, 1084.442, 236.725)" fill="#efefef"/><path d="M26.4,0,41.338,39.1,0,31.626Z" transform="translate(685.287 158.844) rotate(6)" fill="#efefef"/><path d="M21.141,0,33.108,31.314,0,25.33Z" transform="translate(798.113 94.199) rotate(-31)" fill="#efefef"/><path d="M21.141,0,33.108,31.314,0,25.33Z" transform="translate(1160.311 27.739) rotate(67)" fill="#efefef"/><path d="M20.742,61.074l3.753-10.9L13.8,46.277l2.1-5.769,1.768-5.135-10.7-3.893.05-.137L6.83,31.27l4.093-10.663L.139,16.681l.05-.137L0,16.472,6.322,0l5.846,2.244L8.075,12.907l10.785,3.926-.05.136.188.072L14.9,27.705l10.786,3.925-2.1,5.766-1.77,5.139,10.7,3.893-2.086,5.731L26.661,63.113Z" transform="matrix(-0.07, 0.998, -0.998, -0.07, 834.924, 155.945)" fill="#efefef"/><path d="M20.742,61.074l3.753-10.9L13.8,46.277l2.1-5.769,1.768-5.135-10.7-3.893.05-.137L6.83,31.27l4.093-10.663L.139,16.681l.05-.137L0,16.472,6.322,0l5.846,2.244L8.075,12.907l10.785,3.926-.05.136.188.072L14.9,27.705l10.786,3.925-2.1,5.766-1.77,5.139,10.7,3.893-2.086,5.731L26.661,63.113Z" transform="translate(1140.924 437.945) rotate(94)" fill="#efefef"/><path d="M19.5,57.4l3.528-10.248L12.969,43.5l1.973-5.423L16.6,33.247,6.549,29.588l.047-.129-.176-.068,3.847-10.022L.13,15.679l.047-.129L0,15.482,5.942,0l5.494,2.109L7.589,12.132l10.136,3.69-.047.128.177.068L14.008,26.04,24.145,29.73l-1.973,5.419-1.663,4.83,10.055,3.659L28.6,49.025,25.059,59.32Z" transform="translate(1042.919 66.279) rotate(-38)" fill="#efefef"/><path d="M9.7,28.03v-9.7H0V9.7H9.7V0h8.625V9.7h9.7v8.624h-9.7v9.7Z" transform="translate(814.321 10.537)" fill="#efefef"/><path d="M9.7,28.03v-9.7H0V9.7H9.7V0h8.625V9.7h9.7v8.624h-9.7v9.7Z" transform="translate(742.213 235.938)" fill="#efefef"/><path d="M10.838,31.31V20.472H0V10.839H10.838V0h9.634V10.839H31.31v9.633H20.472V31.31Z" transform="matrix(0.839, -0.545, 0.545, 0.839, 1136.572, 293.35)" fill="#efefef"/><path d="M7.334,21.189V13.854H0V7.335H7.334V0h6.52V7.335h7.334v6.519H13.854v7.334Z" transform="translate(699.01 444.013) rotate(-13)" fill="#efefef"/><path d="M12.932,37.358V24.426H0V12.933H12.932V0H24.426V12.933H37.357V24.426H24.426V37.358Z" transform="matrix(0.998, 0.07, -0.07, 0.998, 1043.882, 123.771)" fill="#efefef"/><path d="M19.5,57.4l3.528-10.248L12.969,43.5l1.973-5.423L16.6,33.247,6.549,29.588l.047-.129-.176-.068,3.847-10.022L.13,15.679l.047-.129L0,15.482,5.942,0l5.494,2.109L7.589,12.132l10.136,3.69-.047.128.177.068L14.008,26.04,24.145,29.73l-1.973,5.419-1.663,4.83,10.055,3.659L28.6,49.025,25.059,59.32Z" transform="translate(870.019 58.427) rotate(-42)" fill="#efefef"/><rect width="32" height="32" transform="translate(1127.53 350.21) rotate(16)" fill="#efefef"/><rect width="32" height="32" transform="matrix(0.819, -0.574, 0.574, 0.819, 670.217, 382.071)" fill="#efefef"/><line x2="1171" transform="translate(0 477.5)" fill="none" stroke="#6a696b" stroke-width="0.5" opacity="0.3"/></g></svg>